<svg id="visual" viewBox="0 0 540 960" width="540" height="960" xmlns="http://www.w3.org/2000/svg" xmlns:xlink="http://www.w3.org/1999/xlink" version="1.1"><rect x="0" y="0" width="540" height="960" fill="#FFFDB7"></rect><defs><linearGradient id="grad1_0" x1="0%" y1="0%" x2="100%" y2="100%"><stop offset="30%" stop-color="#fffdb7" stop-opacity="1"></stop><stop offset="70%" stop-color="#fffdb7" stop-opacity="1"></stop></linearGradient></defs><defs><linearGradient id="grad2_0" x1="0%" y1="0%" x2="100%" y2="100%"><stop offset="30%" stop-color="#fffdb7" stop-opacity="1"></stop><stop offset="70%" stop-color="#fffdb7" stop-opacity="1"></stop></linearGradient></defs><g transform="translate(540, 0)"><path d="M0 405C-38.5 390.4 -77 375.9 -119 366.2C-160.9 356.5 -206.4 351.6 -238.1 327.7C-269.7 303.7 -287.7 260.6 -307.4 223.4C-327.2 186.2 -348.6 154.9 -365.2 118.7C-381.8 82.4 -393.4 41.2 -405 0L0 0Z" fill="#AEF4A4"></path></g><g transform="translate(0, 960)"><path d="M0 -405C39.4 -390.6 78.8 -376.1 117.4 -361.4C156.1 -346.7 194.1 -331.7 223.4 -307.4C252.6 -283.2 273.3 -249.7 301.8 -219.2C330.3 -188.7 366.7 -161.2 385.2 -125.2C403.7 -89.1 404.3 -44.6 405 0L0 0Z" fill="#AEF4A4"></path></g></svg>