<svg id="How_to_play" data-name="How to play" xmlns="http://www.w3.org/2000/svg" width="21" height="21" viewBox="0 0 21 21">
  <g id="Path_10" data-name="Path 10" fill="none">
    <path d="M10.5,0A10.5,10.5,0,1,1,0,10.5,10.5,10.5,0,0,1,10.5,0Z" stroke="none" fill="#FFFDB7"/>
    <path d="M 10.5 1 C 5.261679649353027 1 1 5.261679649353027 1 10.5 C 1 15.73831939697266 5.261679649353027 20 10.5 20 C 15.73831939697266 20 20 15.73831939697266 20 10.5 C 20 5.261679649353027 15.73831939697266 1 10.5 1 M 10.5 0 C 16.29899024963379 0 21 4.701009750366211 21 10.5 C 21 16.29899024963379 16.29899024963379 21 10.5 21 C 4.701009750366211 21 0 16.29899024963379 0 10.5 C 0 4.701009750366211 4.701009750366211 0 10.5 0 Z" stroke="none" fill="#707070"/>
  </g>
  <g id="Ellipse_23" data-name="Ellipse 23" transform="translate(4 4)" fill="#79b8d1" stroke="#707070" stroke-width="1">
    <circle cx="6.5" cy="6.5" r="6.5" stroke="none"/>
    <circle cx="6.5" cy="6.5" r="6" fill="none"/>
  </g>
</svg>
